# xmcd CD database file
#
# Track frame offsets:
#	150
#	22530
#	36957
#	53785
#	72115
#	87885
#	107835
#	123085
#	141832
#	158537
#	179740
#	205152
#	224362
#	239005
#
# Disc length: 3400 seconds
#
# Revision: 1
# Processed by: cddbd v1.5.1PL0 Copyright (c) Steve Scherf et al.
# Submitted via: CDex 1.51
#
DISCID=be0d460e
DTITLE=Bengt Hallberg - Powerhouse - "Kraftverk"
DYEAR=1900
DGENRE=Jazz
TTITLE0=God Bless The Child
TTITLE1=Blood Count
TTITLE2=My Man's Gone Now
TTITLE3=They Crucifield My Lord
TTITLE4=Lolette
TTITLE5=Rockin' Chair
TTITLE6=The Summer Knows
TTITLE7=Just A-sittin' and A-rockin'
TTITLE8=Prelude
TTITLE9=Encounter At Dusk
TTITLE10=Indian Summer
TTITLE11=Cabin In The Sky
TTITLE12=Så Skimrande Var Aldrig Havet
TTITLE13=Södermalm
EXTD=
EXTT0=
EXTT1=
EXTT2=
EXTT3=
EXTT4=
EXTT5=
EXTT6=
EXTT7=
EXTT8=
EXTT9=
EXTT10=
EXTT11=
EXTT12=
EXTT13=
PLAYORDER=
